HIERARCHY
ROOT Hips
{
OFFSET -0.1795 -22.3333 2.8219000000000003
	CHANNELS 6 Xposition Yposition Zposition Zrotation Yrotation Xrotation 
	JOINT LeftUpLeg
	{
OFFSET 6.952 -9.140600000000001 -0.6815
		CHANNELS 3 Zrotation Yrotation Xrotation
		JOINT LeftLeg
		{
OFFSET 3.4277 -37.5199 -0.4496
			CHANNELS 3 Zrotation Yrotation Xrotation
			JOINT LeftFoot
			{
OFFSET -1.3596000000000001 -39.7961 -4.3693
				CHANNELS 3 Zrotation Yrotation Xrotation
				JOINT LeftToe
				{
OFFSET 2.6358 -5.5791 11.9288
					CHANNELS 3 Zrotation Yrotation Xrotation
					End Site
					{
OFFSET 0.0 0.0 0.0
					}
				}
			}
		}
	}
	JOINT RightUpLeg
	{
OFFSET -6.7669999999999995 -9.052200000000001 -0.432
		CHANNELS 3 Zrotation Yrotation Xrotation
		JOINT RightLeg
		{
OFFSET -3.8289999999999997 -38.2569 -0.885
			CHANNELS 3 Zrotation Yrotation Xrotation
			JOINT RightFoot
			{
OFFSET 1.5774 -39.8415 -4.2312
				CHANNELS 3 Zrotation Yrotation Xrotation
				JOINT RightToe
				{
OFFSET -2.5372 -4.8144 12.3348
					CHANNELS 3 Zrotation Yrotation Xrotation
					End Site
					{
OFFSET 0.0 0.0 0.0
					}
				}
			}
		}
	}
	JOINT Spine
	{
OFFSET -0.2533 10.8963 -2.6696
		CHANNELS 3 Zrotation Yrotation Xrotation
		JOINT Spine1
		{
OFFSET 0.5487 13.517999999999999 0.1092
			CHANNELS 3 Zrotation Yrotation Xrotation
			JOINT Spine2
			{
OFFSET 0.1457 5.292199999999999 2.5425
				CHANNELS 3 Zrotation Yrotation Xrotation
				JOINT Neck
				{
OFFSET -0.2778 21.387 -4.2857
					CHANNELS 3 Zrotation Yrotation Xrotation
					JOINT Head
					{
OFFSET 0.5152 6.497 5.1349
						CHANNELS 3 Zrotation Yrotation Xrotation
						End Site
						{
OFFSET 0.0 0.0 0.0
						}
					}
				}
				JOINT LeftShoulder
				{
OFFSET 7.8845 12.1749 -3.4090000000000003
					CHANNELS 3 Zrotation Yrotation Xrotation
					JOINT LeftArm
					{
OFFSET 9.0977 3.0469 -0.8867999999999999
						CHANNELS 3 Zrotation Yrotation Xrotation
						JOINT LeftForeArm
						{
OFFSET 25.9612 -1.2772000000000001 -2.7456
							CHANNELS 3 Zrotation Yrotation Xrotation
							JOINT LeftHand
							{
OFFSET 24.9234 0.8986 -0.1171
								CHANNELS 3 Zrotation Yrotation Xrotation
								End Site
								{
OFFSET 0.0 0.0 0.0
								}
							}
						}
					}
				}
				JOINT RightShoulder
				{
OFFSET -8.1759 11.8833 -3.8614999999999995
					CHANNELS 3 Zrotation Yrotation Xrotation
					JOINT RightArm
					{
OFFSET -9.6012 3.2550999999999997 -0.9143
						CHANNELS 3 Zrotation Yrotation Xrotation
						JOINT RightForeArm
						{
OFFSET -25.374200000000002 -1.3329 -2.1401
							CHANNELS 3 Zrotation Yrotation Xrotation
							JOINT RightHand
							{
OFFSET -25.5298 0.7772 -0.5559
								CHANNELS 3 Zrotation Yrotation Xrotation
								End Site
								{
OFFSET 0.0 0.0 0.0
								}
							}
						}
					}
				}
			}
		}
	}
}
MOTION
Frames: 10
Frame Time: 0.050000
-3.8693999999999997 95.9017 86.7379 -3.010335 5.459627 3.949943 -0.418281 1.114058 13.288835 1.448337 -0.607498 8.677252 -3.834225 -1.336427 11.442044 0.000000 0.000000 0.000000 0.443637 2.575683 -27.868313 2.426301 -0.166895 11.853583 0.102135 -3.966413 11.743618 0.000000 0.000000 0.000000 5.834569 -0.885051 7.726660 -1.796757 1.101514 -26.654128 -4.505980 -5.611079 31.819384 4.868595 -1.183963 -31.720062 0.000000 0.000000 0.000000 -20.446166 -0.662387 0.051739 -50.141443 -2.331620 -7.838415 -13.306200 -34.389225 6.351323 0.000000 0.000000 0.000000 23.340713 -5.162829 -5.190310 53.411659 -2.176498 -8.627645 13.484871 29.602764 4.706596 0.000000 0.000000 0.000000
-3.1292 95.56869999999999 96.08640000000001 -2.633207 6.047228 3.057722 0.469952 0.776513 10.506900 1.530228 -1.593428 22.295338 -3.483539 -0.481599 11.929188 0.000000 0.000000 0.000000 2.113763 2.697830 -25.538973 2.704075 -0.247634 11.008591 0.401332 -4.000388 14.150236 0.000000 0.000000 0.000000 7.303015 -0.759161 5.535072 -2.989414 1.393017 -24.983441 -3.814381 -4.879621 30.538273 4.904945 -1.221782 -29.159839 0.000000 0.000000 0.000000 -19.565975 -0.851501 -0.185992 -51.521759 -0.998395 -8.359002 -14.095202 -33.989920 6.414716 0.000000 0.000000 0.000000 22.558606 -6.277815 -5.381543 54.501531 -4.117325 -9.566073 11.864315 28.157271 4.125584 0.000000 0.000000 0.000000
-2.3032 95.0182 104.74369999999999 -2.811896 7.129101 0.539816 1.994803 0.254621 4.878379 0.191578 -2.777351 39.190287 -1.278054 2.621900 10.604587 0.000000 0.000000 0.000000 3.427928 2.501288 -21.328098 2.039935 -0.144527 16.608500 -1.561571 -6.788682 11.084077 0.000000 0.000000 0.000000 8.157632 -0.964062 7.192034 -3.360441 1.523230 -24.312210 -2.740180 -3.386461 30.259028 6.073379 -1.526312 -28.936277 0.000000 0.000000 0.000000 -20.428694 -2.138874 -0.145349 -52.484124 -0.550549 -8.617762 -12.663995 -34.132403 5.806029 0.000000 0.000000 0.000000 23.822976 -6.540040 -4.975174 54.279489 -2.536256 -9.042099 9.560316 26.854357 3.550109 0.000000 0.000000 0.000000
-1.337 95.0465 112.5543 -2.864158 6.786173 -0.920251 3.620967 -0.258756 -3.050418 -3.116567 -1.905563 48.805405 0.980770 5.717533 8.913326 0.000000 0.000000 0.000000 4.845439 2.066920 -15.538386 0.777418 0.210117 17.563036 -1.650605 -5.919223 6.294315 0.000000 0.000000 0.000000 8.297866 -1.109307 8.610012 -3.901221 1.623821 -25.530972 -0.411483 -0.404738 31.379682 6.825127 -1.474816 -29.042352 0.000000 0.000000 0.000000 -21.460217 -3.172908 -0.468714 -53.453176 0.415465 -9.110187 -11.188268 -32.551487 4.855465 0.000000 0.000000 0.000000 24.123903 -7.081619 -4.358430 54.401985 0.021052 -8.301328 6.981123 27.107884 3.220906 0.000000 0.000000 0.000000
-0.2046 95.7623 119.8747 -2.384030 5.608873 -1.877283 3.826068 -0.673566 -10.088103 -4.703701 -0.722571 49.372287 2.700868 7.872472 6.422094 0.000000 0.000000 0.000000 4.825952 1.120790 -8.253358 0.583413 0.273884 14.648067 -0.828356 -3.723793 4.616572 0.000000 0.000000 0.000000 7.513246 -1.108455 9.543630 -4.233627 1.697058 -25.294261 1.375006 1.949465 31.017927 7.186856 -1.534817 -27.898947 0.000000 0.000000 0.000000 -21.459051 -2.808003 -1.190837 -54.277597 1.978910 -9.812697 -10.648759 -29.993687 4.173370 0.000000 0.000000 0.000000 23.866033 -6.261259 -3.302085 53.792253 4.134810 -6.588650 5.172542 26.821845 2.848190 0.000000 0.000000 0.000000
1.0711 96.2125 126.8959 -1.240282 3.799965 -2.146361 3.609642 -1.053912 -15.719301 -5.315758 0.314549 42.528971 3.990225 10.069229 6.187715 0.000000 0.000000 0.000000 3.079974 0.125843 -1.253970 0.978326 0.186515 12.019182 0.290385 -0.620768 2.999455 0.000000 0.000000 0.000000 6.435736 -0.990396 9.676797 -4.818497 1.812068 -25.399392 2.978713 5.383706 31.629645 7.249354 -1.235747 -27.315637 0.000000 0.000000 0.000000 -21.066026 -2.337359 -2.085023 -54.520073 3.478927 -10.437209 -11.162885 -28.531694 3.927329 0.000000 0.000000 0.000000 23.295705 -5.291349 -1.946881 53.296557 7.729379 -5.225213 5.001962 29.774421 3.367913 0.000000 0.000000 0.000000
2.4414000000000002 95.8205 133.7616 -0.753237 1.025572 -2.361902 4.116325 -1.085130 -18.394669 -4.088827 0.385023 27.526905 3.995760 10.223764 7.332616 0.000000 0.000000 0.000000 1.293742 -0.502689 4.263026 1.301726 0.149541 10.824490 1.266603 2.631548 1.098226 0.000000 0.000000 0.000000 5.849742 -0.930215 9.942730 -5.008319 1.822280 -25.422518 3.828348 8.684926 31.922017 7.661376 -1.110437 -27.786374 0.000000 0.000000 0.000000 -19.759287 -1.011870 -3.027437 -55.239638 5.424127 -11.471026 -11.744479 -26.927544 3.733762 0.000000 0.000000 0.000000 22.504448 -4.143615 -0.799982 52.939762 11.028313 -3.858992 4.706992 33.933196 4.039165 0.000000 0.000000 0.000000
3.8760000000000003 94.8857 140.6334 -0.853137 -0.892775 -2.634122 4.842139 -0.923570 -18.798632 -1.245792 -0.079770 9.781528 2.844942 8.636963 9.683460 0.000000 0.000000 0.000000 0.427968 -0.877471 8.445899 1.106335 0.251376 11.616816 1.322128 3.929877 -0.818435 0.000000 0.000000 0.000000 5.597811 -0.931184 10.461153 -5.553962 1.920256 -25.708823 5.067881 10.443693 32.297549 7.583492 -0.832880 -28.579510 0.000000 0.000000 0.000000 -19.938309 -0.793371 -3.352325 -54.749651 6.725732 -11.880904 -10.479274 -25.749792 3.235916 0.000000 0.000000 0.000000 21.453271 -4.025585 -0.621622 52.380239 13.880894 -2.569151 5.001702 37.074690 4.701746 0.000000 0.000000 0.000000
5.3770999999999995 93.6983 147.6418 -0.555651 -2.147091 -3.492428 5.251417 -0.790676 -18.544074 -1.622514 0.196776 -0.516463 1.836939 7.655415 13.114906 0.000000 0.000000 0.000000 -0.867615 -1.042765 11.961677 0.045788 0.658607 15.048278 1.657099 5.175238 -1.328230 0.000000 0.000000 0.000000 4.315596 -0.827900 10.981797 -4.845718 1.755155 -25.046522 4.878142 11.864094 31.743403 8.035616 -1.030169 -28.098201 0.000000 0.000000 0.000000 -20.242488 -1.294727 -3.337091 -54.529583 7.357840 -11.962973 -7.818397 -24.068409 2.416059 0.000000 0.000000 0.000000 21.541092 -3.574771 -0.218723 52.020545 15.355186 -1.907718 6.832423 39.588155 5.830573 0.000000 0.000000 0.000000
6.8621 92.63040000000001 154.95669999999998 0.271367 -2.005382 -4.452025 3.722679 -1.102456 -19.633681 -1.821664 0.158069 3.118948 0.883640 7.096552 16.838245 0.000000 0.000000 0.000000 -1.644576 -0.964232 12.171932 -1.977973 1.893962 25.594945 0.862186 3.303017 -1.714868 0.000000 0.000000 0.000000 2.983840 -0.659487 10.449934 -5.415200 1.900952 -25.048617 4.557562 9.947123 33.649854 7.753004 -0.882815 -30.811284 0.000000 0.000000 0.000000 -21.199043 -2.075937 -2.439406 -53.474268 6.449895 -11.583793 -6.857523 -23.437060 2.286352 0.000000 0.000000 0.000000 22.259211 -2.833780 -0.119940 51.080128 16.636370 -1.688222 6.933227 40.993229 6.040576 0.000000 0.000000 0.000000
